<svg width="133" height="145" viewBox="0 0 133 145" fill="none" xmlns="http://www.w3.org/2000/svg">
<g clip-path="url(#clip0_250_230)">
<path fill-rule="evenodd" clip-rule="evenodd" d="M118.183 60.7396C111.586 62.3686 98.7035 65.8935 96.8521 67.7508C94.4892 70.1212 92.1264 77.7067 91.1812 84.818C90.2361 91.9293 88.3457 101.885 82.2023 100.937C76.0588 99.9889 71.8056 95.7221 70.3879 84.818C69.8066 80.3467 70.0198 77.3103 70.1805 75.0223C70.4118 71.7307 70.5341 69.9883 68.025 67.7508C66.5254 66.4135 63.9095 65.0762 61.1717 63.6766C56.1446 61.1067 50.7064 58.3266 51.0123 54.9504C51.4849 49.7354 51.9576 48.3131 54.3205 46.4167C56.6834 44.5204 65 42.0001 68.5 42.0001C74.651 42.0001 76.56 42.8069 78.4226 43.5941C78.6797 43.7027 78.9359 43.811 79.2023 43.9167C81.7107 44.9125 84.0132 47.4286 85.8759 49.464C88.6715 52.519 90.4764 54.4913 90.4998 48.6164C90.5001 48.5437 90.5075 48.4657 90.5237 48.3948C91.2389 45.2565 93.0215 41.3132 94.7915 38.3457L92.4572 33.9689L88.4572 25.4689L88.21 25.024C86.8196 22.5212 84.1815 20.9689 81.3183 20.9689C80.0944 20.9689 78.8873 20.6839 77.7925 20.1366L76.2042 19.3424C75.0553 18.768 73.7884 18.4689 72.5039 18.4689H71.3076C69.5091 18.4689 67.8114 19.2993 66.7072 20.7189C65.603 22.1386 63.8823 22.9689 62.0838 22.9689C60.7195 22.9689 59.3803 22.4969 58.3244 21.633L54.4572 18.4689L49.467 15.1421C48.8143 14.707 48.3339 14.0578 48.1085 13.3065L47.7014 11.9496C47.3128 10.6543 45.8502 10.0224 44.6407 10.6272C44.1982 10.8484 43.6937 10.9124 43.21 10.8088L39.7443 10.0662C37.9106 9.67322 36.0112 9.7054 34.1919 10.1602L30.9572 10.9689L23.8917 11.8521C23.3111 11.9247 22.7344 11.6904 22.3688 11.2335C21.665 10.3537 20.3123 10.4005 19.6709 11.3268L16.6834 15.6422C16.5328 15.8597 16.3978 16.0877 16.2795 16.3244L15.3521 18.1791C13.7659 21.3516 11.6786 24.2475 9.17051 26.7556L7.06398 28.8621C5.34194 30.5842 3.96323 32.6215 3.00391 34.8599C1.98415 37.2393 1.45718 39.8038 1.45718 42.3925V46.0004C1.45718 46.9627 1.20605 47.9084 0.728597 48.7439C-0.0778193 50.1552 -0.222525 51.8497 0.332939 53.3772L0.71275 54.4217C1.20001 55.7617 2.03961 56.9454 3.14313 57.8483L5.68505 59.9281C6.49022 60.5868 6.95718 61.5723 6.95718 62.6126C6.95718 63.7723 7.53679 64.8553 8.50174 65.4986L11.4572 67.4689C13.6902 69.0639 16.4839 69.6636 19.1748 69.1254L25.1317 67.934C26.6782 67.6247 28.2516 67.4689 29.8287 67.4689H32.9572C35.6041 67.4689 38.2314 67.924 40.7242 68.8143L43.9572 69.9689C46.6445 70.8647 48.4572 73.3796 48.4572 76.2123V77.8809C48.4572 80.1783 49.3698 82.3815 50.9943 84.006C52.2709 85.2826 53.1167 86.9262 53.4135 88.7071L54.1493 93.1217C54.3542 94.3511 54.4572 95.5953 54.4572 96.8416V97.8766C54.4572 99.9304 54.2053 101.976 53.7072 103.969L53.6603 104.156C53.1933 106.024 52.9572 107.943 52.9572 109.868C52.9572 113.23 53.6769 116.552 55.068 119.613L57.9572 125.969L59.9572 130.969L62.0628 135.18C62.651 136.356 62.9572 137.654 62.9572 138.969V139.969C62.9572 140.627 63.1103 141.275 63.4043 141.863C64.3073 143.669 66.3573 144.578 68.3186 144.098C69.722 143.755 71.029 143.469 71.4572 143.469C71.6072 143.469 71.7831 143.504 71.9741 143.565C73.6472 144.094 75.4486 144.473 77.0182 143.688C77.31 143.542 77.5856 143.366 77.8404 143.162L82.4572 139.469L84.3925 137.727C86.3901 135.929 87.8054 133.576 88.4572 130.969L89.1462 127.868C89.3408 126.993 89.9553 126.27 90.7881 125.937L90.8697 125.904C91.5594 125.628 92.0927 125.062 92.3276 124.358C92.4134 124.1 92.4572 123.831 92.4572 123.559V123.219C92.4572 122.722 92.5373 122.229 92.6944 121.757L93.1665 120.341C94.009 117.814 95.564 115.583 97.6444 113.919L100.575 111.575C101.482 110.849 102.197 109.91 102.655 108.841C103.179 107.618 103.347 106.271 103.139 104.957L101.957 97.4689L100.548 91.834C100.489 91.5951 100.365 91.3769 100.191 91.2028C99.7578 90.7695 99.6681 90.0998 99.9721 89.5678L101.206 87.4087C101.373 87.1164 101.571 86.8432 101.798 86.5941L106.457 81.4689L113.09 74.0994C114.664 72.3508 116.046 70.4388 117.213 68.3962L119.457 64.4689C120.12 63.0098 119.603 61.4579 118.505 60.5955C118.409 60.6616 118.3 60.7107 118.183 60.7396ZM119.454 105.194L117.692 106.76C117.536 106.899 117.369 107.025 117.192 107.137L114.066 109.127C112.753 109.963 111.957 111.412 111.957 112.969V114.233C111.957 115.703 111.615 117.154 110.957 118.469L110.607 119.17C110.18 120.024 109.957 120.966 109.957 121.921V123.187C109.957 124.008 110.283 124.795 110.863 125.375L110.915 125.427C111.571 126.083 112.497 126.392 113.416 126.261C114.641 126.085 115.627 125.163 115.882 123.951L117.457 116.469L119.044 111.707C119.291 110.968 119.983 110.469 120.763 110.469C121.487 110.469 122.142 110.037 122.428 109.371L123.094 107.817C123.327 107.273 123.341 106.659 123.133 106.105C122.567 104.594 120.66 104.122 119.454 105.194Z" fill="url(#paint0_linear_250_230)"/>
<path d="M79.374 82.9745C79.4521 83.3722 80.1428 86.1614 80.8739 88.9008C81.1505 89.9372 82.3148 89.8048 82.2674 88.7332C82.2565 88.4867 82.242 88.2385 82.2234 87.9905C82.2159 87.8909 82.1921 87.7994 82.1666 87.7027C81.4287 84.9078 87.2319 71.6788 89.0832 68.8269C90.9669 65.9249 93.9694 61.0933 98.1625 57.5662C101.671 54.6149 111.413 54.9787 115.53 52.2514C119.646 49.5241 124.226 43.7818 126.106 38.5813C128.309 32.4857 131.463 22.6034 131.431 21.5379C131.398 20.4725 130.493 19.5129 129.031 20.6706C127.569 21.8282 108.123 34.4946 103.944 37.5266C100.487 40.0346 98.2802 43.3792 96.5611 48.1358C94.6122 53.5283 96.0307 53.6153 92.5594 59.2546C92.5334 59.2969 92.5022 59.34 92.4701 59.378C89.2309 63.2162 88.2611 65.5026 86.1267 70.0767C84.7663 72.9921 83.464 76.0972 82.3082 78.8805C81.9113 79.8362 80.5135 79.6302 80.4076 78.6007L79.1234 66.1131C79.1056 65.9406 79.1327 65.7676 79.202 65.6086C80.0012 63.7753 81.3958 60.371 81.3195 59.6985C81.2197 58.8194 82.2801 56.4628 73.3187 52.3811C67.2989 49.6392 60.3781 52.3766 56.3438 54.9004C55.5892 55.3724 55.8827 56.4323 56.7686 56.5184C61.2435 56.9534 68.5288 57.8289 72.8218 61.2639C79.145 66.3232 79.0153 81.1474 79.374 82.9745Z" fill="url(#paint1_linear_250_230)"/>
</g>
<defs>
<linearGradient id="paint0_linear_250_230" x1="105.6" y1="36.8243" x2="48.2319" y2="127.143" gradientUnits="userSpaceOnUse">
<stop stop-color="#FFA500"/>
<stop offset="1" stop-color="#996300"/>
</linearGradient>
<linearGradient id="paint1_linear_250_230" x1="118.391" y1="34.004" x2="64.925" y2="66.3798" gradientUnits="userSpaceOnUse">
<stop stop-color="#FFA500"/>
<stop offset="1" stop-color="#996300"/>
</linearGradient>
<clipPath id="clip0_250_230">
<rect width="133" height="145" fill="white"/>
</clipPath>
</defs>
</svg>
